<svg width="1440" height="642" viewBox="0 0 1440 642" fill="none" xmlns="http://www.w3.org/2000/svg">
<rect x="239.86" y="0.725117" width="79.8417" height="79.8417" rx="9.27488" stroke="#D7D9F6" stroke-width="1.45023"/>
<rect x="319.887" y="0.725117" width="79.8417" height="79.8417" rx="9.27488" stroke="#D7D9F6" stroke-width="1.45023"/>
<rect x="399.914" y="0.725117" width="79.8417" height="79.8417" rx="9.27488" stroke="#D7D9F6" stroke-width="1.45023"/>
<rect x="239.86" y="80.6948" width="79.8417" height="79.8417" rx="9.27488" stroke="#D7D9F6" stroke-width="1.45023"/>
<rect x="399.914" y="80.6948" width="79.8417" height="79.8417" rx="9.27488" stroke="#D7D9F6" stroke-width="1.45023"/>
<rect x="320.162" y="80.9697" width="79.2919" height="79.2919" rx="9" fill="#F7F5FF" stroke="#3843D0" stroke-width="2"/>
<g opacity="0.5" clip-path="url(#clip0_1_3325)">
<path opacity="0.2" d="M375.625 103.812H344.375C343.961 103.812 343.563 103.977 343.27 104.27C342.977 104.563 342.812 104.961 342.812 105.375V136.625C342.812 137.039 342.977 137.437 343.27 137.73C343.563 138.023 343.961 138.188 344.375 138.188H346.072L367.488 116.77C367.633 116.624 367.806 116.509 367.995 116.43C368.185 116.352 368.388 116.311 368.594 116.311C368.799 116.311 369.002 116.352 369.192 116.43C369.382 116.509 369.554 116.624 369.699 116.77L377.188 124.26V105.375C377.188 104.961 377.023 104.563 376.73 104.27C376.437 103.977 376.039 103.812 375.625 103.812ZM353.75 117.875C353.132 117.875 352.528 117.692 352.014 117.348C351.5 117.005 351.099 116.517 350.863 115.946C350.626 115.375 350.564 114.747 350.685 114.14C350.806 113.534 351.103 112.977 351.54 112.54C351.977 112.103 352.534 111.806 353.14 111.685C353.747 111.564 354.375 111.626 354.946 111.863C355.517 112.099 356.005 112.5 356.348 113.014C356.692 113.528 356.875 114.132 356.875 114.75C356.875 115.579 356.546 116.374 355.96 116.96C355.374 117.546 354.579 117.875 353.75 117.875Z" fill="#3843D0"/>
<path d="M375.625 103.812H344.375C343.512 103.812 342.812 104.512 342.812 105.375V136.625C342.812 137.488 343.512 138.188 344.375 138.188H375.625C376.488 138.188 377.188 137.488 377.188 136.625V105.375C377.188 104.512 376.488 103.812 375.625 103.812Z" stroke="#3843D0" stroke-width="2" stroke-linecap="round" stroke-linejoin="round"/>
<path d="M353.75 117.875C355.476 117.875 356.875 116.476 356.875 114.75C356.875 113.024 355.476 111.625 353.75 111.625C352.024 111.625 350.625 113.024 350.625 114.75C350.625 116.476 352.024 117.875 353.75 117.875Z" stroke="#3843D0" stroke-width="2" stroke-linecap="round" stroke-linejoin="round"/>
<path d="M346.072 138.188L367.488 116.77C367.633 116.624 367.806 116.509 367.995 116.43C368.185 116.352 368.388 116.311 368.594 116.311C368.799 116.311 369.002 116.352 369.192 116.43C369.382 116.509 369.554 116.624 369.699 116.77L377.187 124.26" stroke="#3843D0" stroke-width="2" stroke-linecap="round" stroke-linejoin="round"/>
</g>
<rect x="879.851" y="480.318" width="80.2919" height="80.2919" rx="9.5" stroke="#D7D9F6"/>
<rect x="1039.9" y="480.318" width="80.2919" height="80.2919" rx="9.5" stroke="#D7D9F6"/>
<rect x="879.851" y="560.288" width="80.2919" height="80.2919" rx="9.5" stroke="#D7D9F6"/>
<rect x="959.878" y="560.288" width="80.2919" height="80.2919" rx="9.5" stroke="#D7D9F6"/>
<rect x="1039.9" y="560.288" width="80.2919" height="80.2919" rx="9.5" stroke="#D7D9F6"/>
<rect x="960.378" y="480.818" width="79.2919" height="79.2919" rx="9" fill="#F7F5FF" stroke="#3843D0" stroke-width="2"/>
<g clip-path="url(#clip1_1_3325)">
<path opacity="0.2" d="M1018.75 513.75L1003.41 524.688H996.592L981.25 513.75L1000 501.25L1018.75 513.75Z" fill="#3843D0"/>
<path d="M981.25 513.75V534.062C981.25 534.477 981.415 534.874 981.708 535.167C982.001 535.46 982.398 535.625 982.812 535.625H1017.19C1017.6 535.625 1018 535.46 1018.29 535.167C1018.59 534.874 1018.75 534.477 1018.75 534.062V513.75L1000 501.25L981.25 513.75Z" stroke="#3843D0" stroke-width="2" stroke-linecap="round" stroke-linejoin="round"/>
<path d="M996.592 524.688L981.732 535.184" stroke="#3843D0" stroke-width="2" stroke-linecap="round" stroke-linejoin="round"/>
<path d="M1018.27 535.184L1003.41 524.688" stroke="#3843D0" stroke-width="2" stroke-linecap="round" stroke-linejoin="round"/>
<path d="M1018.75 513.75L1003.41 524.688H996.592L981.25 513.75" stroke="#3843D0" stroke-width="2" stroke-linecap="round" stroke-linejoin="round"/>
</g>
<rect x="-0.220867" y="320.604" width="79.8417" height="79.8417" rx="9.27488" stroke="#D7D9F6" stroke-width="1.45023"/>
<rect x="79.806" y="320.604" width="79.8417" height="79.8417" rx="9.27488" stroke="#D7D9F6" stroke-width="1.45023"/>
<rect x="-0.445984" y="480.318" width="80.2919" height="80.2919" rx="9.5" stroke="#D7D9F6"/>
<rect x="79.5809" y="480.318" width="80.2919" height="80.2919" rx="9.5" stroke="#D7D9F6"/>
<rect x="79.806" y="400.574" width="79.8417" height="79.8417" rx="9.27488" stroke="#D7D9F6" stroke-width="1.45023"/>
<rect x="0.0539551" y="400.849" width="79.2919" height="79.2919" rx="9" fill="#F7F5FF" stroke="#3843D0" stroke-width="2"/>
<path opacity="0.2" d="M40.8535 448.941L34.875 455.145C34.659 455.369 34.3809 455.523 34.0765 455.588C33.7721 455.653 33.4552 455.626 33.1664 455.51C32.8777 455.393 32.6302 455.194 32.4558 454.936C32.2814 454.678 32.188 454.374 32.1875 454.063V441.342L40.8535 448.941Z" fill="#3843D0"/>
<path opacity="0.2" d="M60.3125 421.488C60.3203 421.454 60.3184 421.418 60.3073 421.384C60.2961 421.35 60.276 421.32 60.2491 421.297C60.2222 421.274 60.1896 421.259 60.1546 421.253C60.1197 421.247 60.0838 421.251 60.0508 421.264L20.4687 436.754C20.223 436.848 20.0146 437.02 19.8748 437.243C19.735 437.466 19.6713 437.729 19.6933 437.991C19.7153 438.254 19.8218 438.502 19.9969 438.698C20.1719 438.895 20.406 439.03 20.6641 439.082L32.1875 441.342L60.3125 421.488Z" fill="#3843D0"/>
<path fill-rule="evenodd" clip-rule="evenodd" d="M59.6866 420.332C59.8886 420.253 60.1082 420.231 60.3221 420.267C60.5359 420.303 60.7358 420.397 60.9004 420.538C61.0649 420.68 61.188 420.863 61.2563 421.069C61.3247 421.275 61.3357 421.495 61.2883 421.707L61.287 421.713L53.3477 456.198C53.2484 456.631 53.0383 457.031 52.738 457.358C52.4377 457.685 52.0575 457.929 51.6347 458.065C51.2119 458.201 50.761 458.224 50.3263 458.134C49.892 458.043 49.4888 457.841 49.156 457.548C49.1556 457.547 49.1552 457.547 49.1548 457.547L31.7308 442.271L20.4654 440.062C19.9953 439.967 19.5687 439.722 19.2498 439.363C18.931 439.005 18.7369 438.553 18.6968 438.075C18.6567 437.597 18.7727 437.119 19.0274 436.712C19.2816 436.307 19.6602 435.994 20.1066 435.822C20.1076 435.821 20.1086 435.821 20.1095 435.821L59.6866 420.332ZM58.9958 422.75L20.828 437.687C20.7842 437.704 20.747 437.735 20.7221 437.774C20.6972 437.814 20.6859 437.861 20.6898 437.908C20.6937 437.954 20.7127 437.999 20.7439 438.034C20.7746 438.068 20.8156 438.092 20.8609 438.102C20.8615 438.102 20.8621 438.102 20.8627 438.102L32.3799 440.36C32.553 440.394 32.7141 440.474 32.8467 440.59L50.478 456.047C50.5511 456.111 50.6397 456.156 50.7351 456.176C50.8306 456.196 50.9295 456.191 51.0223 456.161C51.1151 456.131 51.1986 456.077 51.2645 456.006C51.3304 455.934 51.3766 455.846 51.3984 455.751L58.9958 422.75Z" fill="#3843D0"/>
<path fill-rule="evenodd" clip-rule="evenodd" d="M61.0101 420.685C61.3318 421.134 61.2287 421.759 60.7798 422.08L32.77 442.155C32.3211 442.476 31.6964 442.373 31.3747 441.924C31.053 441.476 31.1561 440.851 31.605 440.529L59.6148 420.455C60.0637 420.133 60.6884 420.236 61.0101 420.685Z" fill="#3843D0"/>
<path fill-rule="evenodd" clip-rule="evenodd" d="M32.1875 440.342C32.7398 440.342 33.1875 440.79 33.1875 441.342V454.062C33.1878 454.173 33.2214 454.283 33.2841 454.375C33.3469 454.468 33.436 454.54 33.5399 454.582C33.6439 454.624 33.758 454.634 33.8675 454.61C33.9771 454.587 34.0772 454.531 34.155 454.451C34.155 454.451 34.155 454.451 34.155 454.451L40.1335 448.247C40.5168 447.85 41.1498 447.838 41.5475 448.221C41.9451 448.605 41.9568 449.238 41.5735 449.635L35.595 455.838C35.2407 456.206 34.7847 456.459 34.2855 456.566C33.7862 456.673 33.2665 456.628 32.793 456.437C32.3194 456.247 31.9136 455.919 31.6275 455.496C31.3415 455.073 31.1883 454.574 31.1875 454.064L31.1875 441.342C31.1875 440.79 31.6352 440.342 32.1875 440.342Z" fill="#3843D0"/>
<rect x="1199.96" y="0.5" width="80.2919" height="80.2919" rx="9.5" stroke="#D7D9F6"/>
<rect x="1279.99" y="0.5" width="80.2919" height="80.2919" rx="9.5" stroke="#D7D9F6"/>
<rect x="1360.01" y="0.5" width="80.2919" height="80.2919" rx="9.5" stroke="#D7D9F6"/>
<rect x="1199.96" y="160.439" width="80.2919" height="80.2919" rx="9.5" stroke="#D7D9F6"/>
<rect x="1279.99" y="160.439" width="80.2919" height="80.2919" rx="9.5" stroke="#D7D9F6"/>
<rect opacity="0.5" x="1360.01" y="160.439" width="80.2919" height="80.2919" rx="9.5" fill="#F7F5FF" stroke="#D7D9F6"/>
<rect x="1440.04" y="160.439" width="80.2919" height="80.2919" rx="9.5" stroke="#D7D9F6"/>
<rect x="1199.96" y="80.4697" width="80.2919" height="80.2919" rx="9.5" stroke="#D7D9F6"/>
<rect x="1360.01" y="80.4697" width="80.2919" height="80.2919" rx="9.5" stroke="#D7D9F6"/>
<rect x="1440.04" y="80.4697" width="80.2919" height="80.2919" rx="9.5" stroke="#D7D9F6"/>
<rect x="1280.49" y="80.9697" width="79.2919" height="79.2919" rx="9" fill="#F7F5FF" stroke="#3843D0" stroke-width="2"/>
<rect x="1199.96" y="240.409" width="80.2919" height="80.2919" rx="9.5" stroke="#D7D9F6"/>
<rect x="79.806" y="0.725117" width="79.8417" height="79.8417" rx="9.27488" stroke="#D7D9F6" stroke-width="1.45023"/>
<rect x="159.833" y="0.725117" width="79.8417" height="79.8417" rx="9.27488" stroke="#D7D9F6" stroke-width="1.45023"/>
<rect x="479.941" y="0.725117" width="79.8417" height="79.8417" rx="9.27488" stroke="#D7D9F6" stroke-width="1.45023"/>
<rect x="559.968" y="0.725117" width="79.8417" height="79.8417" rx="9.27488" stroke="#D7D9F6" stroke-width="1.45023"/>
<rect x="639.995" y="0.725117" width="79.8417" height="79.8417" rx="9.27488" stroke="#D7D9F6" stroke-width="1.45023"/>
<rect x="1279.99" y="240.409" width="80.2919" height="80.2919" rx="9.5" stroke="#D7D9F6"/>
<rect x="1360.01" y="240.409" width="80.2919" height="80.2919" rx="9.5" stroke="#D7D9F6"/>
<rect opacity="0.5" x="-0.220867" y="0.725117" width="79.8417" height="79.8417" rx="9.27488" fill="#F7F5FF" stroke="#D7D9F6" stroke-width="1.45023"/>
<rect x="720.022" y="0.725117" width="79.8417" height="79.8417" rx="9.27488" stroke="#D7D9F6" stroke-width="1.45023"/>
<rect x="800.049" y="0.725117" width="79.8417" height="79.8417" rx="9.27488" fill="#F7F5FF" stroke="#D7D9F6" stroke-width="1.45023"/>
<rect x="880.076" y="0.725117" width="79.8417" height="79.8417" rx="9.27488" stroke="#D7D9F6" stroke-width="1.45023"/>
<rect x="960.103" y="0.725117" width="79.8417" height="79.8417" rx="9.27488" stroke="#D7D9F6" stroke-width="1.45023"/>
<rect x="1040.13" y="0.725117" width="79.8417" height="79.8417" rx="9.27488" stroke="#D7D9F6" stroke-width="1.45023"/>
<rect x="1120.16" y="0.725117" width="79.8417" height="79.8417" rx="9.27488" stroke="#D7D9F6" stroke-width="1.45023"/>
<rect x="-0.220867" y="160.665" width="79.8417" height="79.8417" rx="9.27488" stroke="#D7D9F6" stroke-width="1.45023"/>
<rect x="79.806" y="160.665" width="79.8417" height="79.8417" rx="9.27488" fill="#F7F5FF" stroke="#D7D9F6" stroke-width="1.45023"/>
<g opacity="0.5" clip-path="url(#clip2_1_3325)">
<path opacity="0.2" d="M135 198.594L121.875 185.25L128.827 178.183C129.178 177.825 129.655 177.625 130.152 177.625C130.649 177.625 131.126 177.825 131.477 178.183L141.952 188.824C142.303 189.182 142.5 189.666 142.5 190.172C142.5 190.677 142.303 191.162 141.952 191.519L135 198.594Z" fill="#3843D0"/>
<path d="M140.625 221.469H112.5L99.4945 208.247" stroke="#3843D0" stroke-width="2" stroke-linecap="round" stroke-linejoin="round"/>
<path d="M128.438 191.922L105.938 214.797" stroke="#3843D0" stroke-width="2" stroke-linecap="round" stroke-linejoin="round"/>
<path d="M112.5 221.469H101.25C100.753 221.469 100.276 221.268 99.9242 220.91C99.5725 220.553 99.375 220.068 99.375 219.563V208.914C99.3752 208.409 99.5725 207.925 99.9234 207.567L128.827 178.183C129.178 177.825 129.655 177.625 130.152 177.625C130.649 177.625 131.126 177.825 131.477 178.183L141.952 188.824C142.303 189.182 142.5 189.666 142.5 190.172C142.5 190.677 142.303 191.162 141.952 191.519L112.5 221.469Z" stroke="#3843D0" stroke-width="2" stroke-linecap="round" stroke-linejoin="round"/>
<path d="M121.875 185.25L135 198.594" stroke="#3843D0" stroke-width="2" stroke-linecap="round" stroke-linejoin="round"/>
</g>
<rect x="159.833" y="160.665" width="79.8417" height="79.8417" rx="9.27488" stroke="#D7D9F6" stroke-width="1.45023"/>
<rect x="239.86" y="160.665" width="79.8417" height="79.8417" rx="9.27488" stroke="#D7D9F6" stroke-width="1.45023"/>
<rect x="399.914" y="160.665" width="79.8417" height="79.8417" rx="9.27488" stroke="#D7D9F6" stroke-width="1.45023"/>
<rect x="479.941" y="160.665" width="79.8417" height="79.8417" rx="9.27488" stroke="#D7D9F6" stroke-width="1.45023"/>
<rect x="559.968" y="160.665" width="79.8417" height="79.8417" rx="9.27488" stroke="#D7D9F6" stroke-width="1.45023"/>
<rect x="639.995" y="160.665" width="79.8417" height="79.8417" rx="9.27488" stroke="#D7D9F6" stroke-width="1.45023"/>
<rect x="720.022" y="160.665" width="79.8417" height="79.8417" rx="9.27488" fill="#D7D9F6" stroke="#D7D9F6" stroke-width="1.45023"/>
<rect x="800.049" y="160.665" width="79.8417" height="79.8417" rx="9.27488" stroke="#D7D9F6" stroke-width="1.45023"/>
<rect x="880.076" y="160.665" width="79.8417" height="79.8417" rx="9.27488" stroke="#D7D9F6" stroke-width="1.45023"/>
<rect x="960.103" y="160.665" width="79.8417" height="79.8417" rx="9.27488" stroke="#D7D9F6" stroke-width="1.45023"/>
<rect x="1040.13" y="160.665" width="79.8417" height="79.8417" rx="9.27488" stroke="#D7D9F6" stroke-width="1.45023"/>
<rect x="1120.16" y="160.665" width="79.8417" height="79.8417" rx="9.27488" stroke="#D7D9F6" stroke-width="1.45023"/>
<rect x="-0.220867" y="240.634" width="79.8417" height="79.8417" rx="9.27488" stroke="#D7D9F6" stroke-width="1.45023"/>
<rect x="79.806" y="240.634" width="79.8417" height="79.8417" rx="9.27488" stroke="#D7D9F6" stroke-width="1.45023"/>
<rect x="159.833" y="240.634" width="79.8417" height="79.8417" rx="9.27488" stroke="#D7D9F6" stroke-width="1.45023"/>
<rect x="239.86" y="240.634" width="79.8417" height="79.8417" rx="9.27488" stroke="#D7D9F6" stroke-width="1.45023"/>
<rect x="319.887" y="240.634" width="79.8417" height="79.8417" rx="9.27488" stroke="#D7D9F6" stroke-width="1.45023"/>
<rect x="399.914" y="240.634" width="79.8417" height="79.8417" rx="9.27488" stroke="#D7D9F6" stroke-width="1.45023"/>
<rect x="479.941" y="240.634" width="79.8417" height="79.8417" rx="9.27488" stroke="#D7D9F6" stroke-width="1.45023"/>
<rect x="559.968" y="240.634" width="79.8417" height="79.8417" rx="9.27488" stroke="#D7D9F6" stroke-width="1.45023"/>
<rect x="639.995" y="240.634" width="79.8417" height="79.8417" rx="9.27488" stroke="#D7D9F6" stroke-width="1.45023"/>
<rect x="720.022" y="240.634" width="79.8417" height="79.8417" rx="9.27488" stroke="#D7D9F6" stroke-width="1.45023"/>
<rect x="800.049" y="240.634" width="79.8417" height="79.8417" rx="9.27488" stroke="#D7D9F6" stroke-width="1.45023"/>
<rect x="880.076" y="240.634" width="79.8417" height="79.8417" rx="9.27488" stroke="#D7D9F6" stroke-width="1.45023"/>
<rect x="960.103" y="240.634" width="79.8417" height="79.8417" rx="9.27488" stroke="#D7D9F6" stroke-width="1.45023"/>
<rect x="1040.13" y="240.634" width="79.8417" height="79.8417" rx="9.27488" fill="#D7D9F6" stroke="#D7D9F6" stroke-width="1.45023"/>
<rect x="1120.16" y="240.634" width="79.8417" height="79.8417" rx="9.27488" stroke="#D7D9F6" stroke-width="1.45023"/>
<rect x="159.833" y="320.604" width="79.8417" height="79.8417" rx="9.27488" stroke="#D7D9F6" stroke-width="1.45023"/>
<rect x="239.86" y="320.604" width="79.8417" height="79.8417" rx="9.27488" stroke="#D7D9F6" stroke-width="1.45023"/>
<rect x="319.887" y="320.604" width="79.8417" height="79.8417" rx="9.27488" stroke="#D7D9F6" stroke-width="1.45023"/>
<rect x="399.914" y="320.604" width="79.8417" height="79.8417" rx="9.27488" stroke="#D7D9F6" stroke-width="1.45023"/>
<rect x="479.941" y="320.604" width="79.8417" height="79.8417" rx="9.27488" stroke="#D7D9F6" stroke-width="1.45023"/>
<rect x="559.968" y="320.604" width="79.8417" height="79.8417" rx="9.27488" stroke="#D7D9F6" stroke-width="1.45023"/>
<rect x="639.995" y="320.604" width="79.8417" height="79.8417" rx="9.27488" stroke="#D7D9F6" stroke-width="1.45023"/>
<rect x="720.022" y="320.604" width="79.8417" height="79.8417" rx="9.27488" stroke="#D7D9F6" stroke-width="1.45023"/>
<rect x="800.049" y="320.604" width="79.8417" height="79.8417" rx="9.27488" fill="#D7D9F6" stroke="#D7D9F6" stroke-width="1.45023"/>
<rect x="880.076" y="320.604" width="79.8417" height="79.8417" rx="9.27488" stroke="#D7D9F6" stroke-width="1.45023"/>
<rect x="960.103" y="320.604" width="79.8417" height="79.8417" rx="9.27488" stroke="#D7D9F6" stroke-width="1.45023"/>
<rect x="1040.13" y="320.604" width="79.8417" height="79.8417" rx="9.27488" stroke="#D7D9F6" stroke-width="1.45023"/>
<rect x="1120.16" y="320.604" width="79.8417" height="79.8417" rx="9.27488" stroke="#D7D9F6" stroke-width="1.45023"/>
<rect x="1199.96" y="320.379" width="80.2919" height="80.2919" rx="9.5" stroke="#D7D9F6"/>
<rect x="1279.99" y="320.379" width="80.2919" height="80.2919" rx="9.5" stroke="#D7D9F6"/>
<rect x="159.608" y="480.318" width="80.2919" height="80.2919" rx="9.5" stroke="#D7D9F6"/>
<rect x="239.635" y="480.318" width="80.2919" height="80.2919" rx="9.5" stroke="#D7D9F6"/>
<rect x="319.662" y="480.318" width="80.2919" height="80.2919" rx="9.5" stroke="#D7D9F6"/>
<rect x="399.689" y="480.318" width="80.2919" height="80.2919" rx="9.5" stroke="#D7D9F6"/>
<rect x="479.716" y="480.318" width="80.2919" height="80.2919" rx="9.5" stroke="#D7D9F6"/>
<rect opacity="0.5" x="559.743" y="480.318" width="80.2919" height="80.2919" rx="9.5" fill="#F7F5FF" stroke="#D7D9F6"/>
<rect x="639.77" y="480.318" width="80.2919" height="80.2919" rx="9.5" stroke="#D7D9F6"/>
<rect x="719.797" y="480.318" width="80.2919" height="80.2919" rx="9.5" stroke="#D7D9F6"/>
<rect x="799.824" y="480.318" width="80.2919" height="80.2919" rx="9.5" stroke="#D7D9F6"/>
<rect x="1119.93" y="480.318" width="80.2919" height="80.2919" rx="9.5" stroke="#D7D9F6"/>
<rect x="1199.96" y="480.318" width="80.2919" height="80.2919" rx="9.5" stroke="#D7D9F6"/>
<rect x="1279.99" y="480.318" width="80.2919" height="80.2919" rx="9.5" stroke="#D7D9F6"/>
<rect x="1360.01" y="480.318" width="80.2919" height="80.2919" rx="9.5" stroke="#D7D9F6"/>
<rect x="1440.04" y="480.318" width="80.2919" height="80.2919" rx="9.5" stroke="#D7D9F6"/>
<rect x="-0.445984" y="560.288" width="80.2919" height="80.2919" rx="9.5" stroke="#D7D9F6"/>
<rect x="79.5809" y="560.288" width="80.2919" height="80.2919" rx="9.5" stroke="#D7D9F6"/>
<rect x="159.608" y="560.288" width="80.2919" height="80.2919" rx="9.5" stroke="#D7D9F6"/>
<rect x="239.635" y="560.288" width="80.2919" height="80.2919" rx="9.5" fill="#F7F5FF" stroke="#D7D9F6"/>
<rect x="319.662" y="560.288" width="80.2919" height="80.2919" rx="9.5" stroke="#D7D9F6"/>
<rect x="399.689" y="560.288" width="80.2919" height="80.2919" rx="9.5" stroke="#D7D9F6"/>
<rect x="479.716" y="560.288" width="80.2919" height="80.2919" rx="9.5" stroke="#D7D9F6"/>
<rect x="559.743" y="560.288" width="80.2919" height="80.2919" rx="9.5" stroke="#D7D9F6"/>
<rect x="639.77" y="560.288" width="80.2919" height="80.2919" rx="9.5" stroke="#D7D9F6"/>
<rect opacity="0.5" x="719.797" y="560.288" width="80.2919" height="80.2919" rx="9.5" fill="#F7F5FF" stroke="#D7D9F6"/>
<rect x="799.824" y="560.288" width="80.2919" height="80.2919" rx="9.5" stroke="#D7D9F6"/>
<rect x="1119.93" y="560.288" width="80.2919" height="80.2919" rx="9.5" stroke="#D7D9F6"/>
<rect x="1199.96" y="560.288" width="80.2919" height="80.2919" rx="9.5" stroke="#D7D9F6"/>
<rect x="1279.99" y="560.288" width="80.2919" height="80.2919" rx="9.5" stroke="#D7D9F6"/>
<rect x="1360.01" y="560.288" width="80.2919" height="80.2919" rx="9.5" stroke="#D7D9F6"/>
<rect x="159.833" y="400.574" width="79.8417" height="79.8417" rx="9.27488" stroke="#D7D9F6" stroke-width="1.45023"/>
<rect x="239.86" y="400.574" width="79.8417" height="79.8417" rx="9.27488" fill="#D7D9F6" stroke="#D7D9F6" stroke-width="1.45023"/>
<rect x="319.887" y="400.574" width="79.8417" height="79.8417" rx="9.27488" stroke="#D7D9F6" stroke-width="1.45023"/>
<rect x="399.914" y="400.574" width="79.8417" height="79.8417" rx="9.27488" stroke="#D7D9F6" stroke-width="1.45023"/>
<rect x="479.941" y="400.574" width="79.8417" height="79.8417" rx="9.27488" stroke="#D7D9F6" stroke-width="1.45023"/>
<rect x="559.968" y="400.574" width="79.8417" height="79.8417" rx="9.27488" stroke="#D7D9F6" stroke-width="1.45023"/>
<rect x="639.995" y="400.574" width="79.8417" height="79.8417" rx="9.27488" stroke="#D7D9F6" stroke-width="1.45023"/>
<rect x="720.022" y="400.574" width="79.8417" height="79.8417" rx="9.27488" stroke="#D7D9F6" stroke-width="1.45023"/>
<rect x="800.049" y="400.574" width="79.8417" height="79.8417" rx="9.27488" stroke="#D7D9F6" stroke-width="1.45023"/>
<rect x="880.076" y="400.574" width="79.8417" height="79.8417" rx="9.27488" stroke="#D7D9F6" stroke-width="1.45023"/>
<rect x="1040.13" y="400.574" width="79.8417" height="79.8417" rx="9.27488" stroke="#D7D9F6" stroke-width="1.45023"/>
<rect x="1120.16" y="400.574" width="79.8417" height="79.8417" rx="9.27488" stroke="#D7D9F6" stroke-width="1.45023"/>
<rect x="1199.96" y="400.349" width="80.2919" height="80.2919" rx="9.5" stroke="#D7D9F6"/>
<rect x="1279.99" y="400.349" width="80.2919" height="80.2919" rx="9.5" stroke="#D7D9F6"/>
<rect x="1360.01" y="400.349" width="80.2919" height="80.2919" rx="9.5" fill="#F7F5FF" stroke="#D7D9F6"/>
<rect x="1440.04" y="400.349" width="80.2919" height="80.2919" rx="9.5" stroke="#D7D9F6"/>
<rect x="-0.220867" y="80.6948" width="79.8417" height="79.8417" rx="9.27488" stroke="#D7D9F6" stroke-width="1.45023"/>
<rect x="79.806" y="80.6948" width="79.8417" height="79.8417" rx="9.27488" stroke="#D7D9F6" stroke-width="1.45023"/>
<rect x="159.833" y="80.6948" width="79.8417" height="79.8417" rx="9.27488" stroke="#D7D9F6" stroke-width="1.45023"/>
<rect x="479.941" y="80.6948" width="79.8417" height="79.8417" rx="9.27488" stroke="#D7D9F6" stroke-width="1.45023"/>
<rect x="559.968" y="80.6948" width="79.8417" height="79.8417" rx="9.27488" stroke="#D7D9F6" stroke-width="1.45023"/>
<rect x="639.995" y="80.6948" width="79.8417" height="79.8417" rx="9.27488" stroke="#D7D9F6" stroke-width="1.45023"/>
<rect x="720.022" y="80.6948" width="79.8417" height="79.8417" rx="9.27488" stroke="#D7D9F6" stroke-width="1.45023"/>
<rect x="800.049" y="80.6948" width="79.8417" height="79.8417" rx="9.27488" stroke="#D7D9F6" stroke-width="1.45023"/>
<rect x="880.076" y="80.6948" width="79.8417" height="79.8417" rx="9.27488" stroke="#D7D9F6" stroke-width="1.45023"/>
<rect opacity="0.5" x="960.103" y="80.6948" width="79.8417" height="79.8417" rx="9.27488" fill="#F7F5FF" stroke="#D7D9F6" stroke-width="1.45023"/>
<rect x="1040.13" y="80.6948" width="79.8417" height="79.8417" rx="9.27488" stroke="#D7D9F6" stroke-width="1.45023"/>
<rect x="1120.16" y="80.6948" width="79.8417" height="79.8417" rx="9.27488" stroke="#D7D9F6" stroke-width="1.45023"/>
<g opacity="0.5" clip-path="url(#clip3_1_3325)">
<path opacity="0.2" d="M855.598 40.0586L858.875 35.957C858.433 34.2953 857.772 32.6999 856.908 31.2129L851.693 30.627C851.277 30.1576 850.833 29.7135 850.363 29.2969L849.777 24.0801C848.289 23.2219 846.693 22.5652 845.031 22.127L840.93 25.4023C840.303 25.3652 839.674 25.3652 839.047 25.4023L834.945 22.125C833.289 22.5684 831.699 23.2297 830.217 24.0918L829.631 29.3066C829.162 29.7232 828.717 30.1674 828.301 30.6367L823.084 31.2227C822.226 32.7113 821.569 34.3073 821.131 35.9687L824.406 40.0703C824.369 40.6974 824.369 41.3261 824.406 41.9531L821.129 46.0547C821.571 47.7164 822.232 49.3118 823.096 50.7988L828.311 51.3848C828.727 51.8541 829.171 52.2983 829.641 52.7148L830.227 57.9316C831.715 58.7898 833.311 59.4466 834.973 59.8848L839.074 56.6094C839.701 56.6465 840.33 56.6465 840.957 56.6094L845.059 59.8867C846.72 59.4447 848.316 58.7833 849.803 57.9199L850.389 52.7051C850.858 52.2885 851.302 51.8443 851.719 51.375L856.936 50.7891C857.794 49.3004 858.45 47.7044 858.889 46.043L855.613 41.9414C855.645 41.314 855.64 40.6853 855.598 40.0586ZM840 48.8125C838.455 48.8125 836.944 48.3543 835.66 47.4959C834.375 46.6374 833.374 45.4173 832.782 43.9897C832.191 42.5622 832.036 40.9913 832.338 39.4759C832.639 37.9604 833.383 36.5683 834.476 35.4757C835.568 34.3831 836.96 33.6391 838.476 33.3376C839.991 33.0362 841.562 33.1909 842.99 33.7822C844.417 34.3735 845.637 35.3748 846.496 36.6596C847.354 37.9444 847.812 39.4548 847.812 41C847.812 43.072 846.989 45.0591 845.524 46.5243C844.059 47.9894 842.072 48.8125 840 48.8125Z" fill="#3843D0"/>
<path d="M840 48.8125C844.315 48.8125 847.812 45.3147 847.812 41C847.812 36.6853 844.315 33.1875 840 33.1875C835.685 33.1875 832.188 36.6853 832.188 41C832.188 45.3147 835.685 48.8125 840 48.8125Z" stroke="#3843D0" stroke-width="2" stroke-linecap="round" stroke-linejoin="round"/>
<path d="M823.092 50.7832C822.228 49.2962 821.567 47.7008 821.125 46.0391L824.402 41.9375C824.365 41.3104 824.365 40.6817 824.402 40.0547L821.127 35.9531C821.568 34.2912 822.228 32.6952 823.09 31.207L828.307 30.6211C828.723 30.1517 829.167 29.7076 829.637 29.291L830.223 24.0762C831.709 23.2187 833.302 22.5626 834.961 22.125L839.062 25.4023C839.69 25.3652 840.318 25.3652 840.945 25.4023L845.047 22.127C846.709 22.5682 848.305 23.2283 849.793 24.0898L850.379 29.3066C850.848 29.7232 851.292 30.1674 851.709 30.6367L856.924 31.2227C857.787 32.7097 858.449 34.3051 858.891 35.9668L855.613 40.0684C855.65 40.6954 855.65 41.3241 855.613 41.9512L858.889 46.0527C858.45 47.7142 857.794 49.3102 856.936 50.7988L851.719 51.3848C851.302 51.8541 850.858 52.2983 850.389 52.7148L849.803 57.9297C848.316 58.793 846.72 59.4544 845.059 59.8965L840.957 56.6191C840.33 56.6562 839.701 56.6562 839.074 56.6191L834.973 59.8945C833.311 59.4563 831.715 58.7996 830.227 57.9414L829.641 52.7246C829.171 52.308 828.727 51.8639 828.311 51.3945L823.092 50.7832Z" stroke="#3843D0" stroke-width="2" stroke-linecap="round" stroke-linejoin="round"/>
</g>
<g opacity="0.5" clip-path="url(#clip4_1_3325)">
<path opacity="0.2" d="M284.688 581.25V592.188H295.625L284.688 581.25Z" fill="#3843D0"/>
<path d="M294.062 618.75H265.938C265.523 618.75 265.126 618.585 264.833 618.292C264.54 617.999 264.375 617.602 264.375 617.188V582.812C264.375 582.398 264.54 582.001 264.833 581.708C265.126 581.415 265.523 581.25 265.938 581.25H284.688L295.625 592.188V617.188C295.625 617.602 295.46 617.999 295.167 618.292C294.874 618.585 294.477 618.75 294.062 618.75Z" stroke="#3843D0" stroke-width="2" stroke-linecap="round" stroke-linejoin="round"/>
<path d="M284.688 581.25V592.188H295.625" stroke="#3843D0" stroke-width="2" stroke-linecap="round" stroke-linejoin="round"/>
<path d="M273.75 601.562H286.25" stroke="#3843D0" stroke-width="2" stroke-linecap="round" stroke-linejoin="round"/>
<path d="M273.75 607.812H286.25" stroke="#3843D0" stroke-width="2" stroke-linecap="round" stroke-linejoin="round"/>
</g>
<g clip-path="url(#clip5_1_3325)">
<path opacity="0.2" d="M1320 125.688C1322.59 125.688 1324.69 123.589 1324.69 121C1324.69 118.411 1322.59 116.312 1320 116.312C1317.41 116.312 1315.31 118.411 1315.31 121C1315.31 123.589 1317.41 125.688 1320 125.688Z" fill="#3843D0"/>
<path d="M1318.1 116.717L1315.65 111.221" stroke="#3843D0" stroke-width="2" stroke-linecap="round" stroke-linejoin="round"/>
<path d="M1329.62 117.795L1324.45 119.518" stroke="#3843D0" stroke-width="2" stroke-linecap="round" stroke-linejoin="round"/>
<path d="M1330.36 129.061L1323.7 123.877" stroke="#3843D0" stroke-width="2" stroke-linecap="round" stroke-linejoin="round"/>
<path d="M1316.5 124.113L1309.44 130.387" stroke="#3843D0" stroke-width="2" stroke-linecap="round" stroke-linejoin="round"/>
<path d="M1320 125.688C1322.59 125.688 1324.69 123.589 1324.69 121C1324.69 118.411 1322.59 116.312 1320 116.312C1317.41 116.312 1315.31 118.411 1315.31 121C1315.31 123.589 1317.41 125.688 1320 125.688Z" stroke="#3843D0" stroke-width="2" stroke-linecap="round" stroke-linejoin="round"/>
<path d="M1313.75 111.625C1316.34 111.625 1318.44 109.526 1318.44 106.938C1318.44 104.349 1316.34 102.25 1313.75 102.25C1311.16 102.25 1309.06 104.349 1309.06 106.938C1309.06 109.526 1311.16 111.625 1313.75 111.625Z" stroke="#3843D0" stroke-width="2" stroke-linecap="round" stroke-linejoin="round"/>
<path d="M1334.06 121C1336.65 121 1338.75 118.901 1338.75 116.312C1338.75 113.724 1336.65 111.625 1334.06 111.625C1331.47 111.625 1329.38 113.724 1329.38 116.312C1329.38 118.901 1331.47 121 1334.06 121Z" stroke="#3843D0" stroke-width="2" stroke-linecap="round" stroke-linejoin="round"/>
<path d="M1334.06 136.625C1336.65 136.625 1338.75 134.526 1338.75 131.938C1338.75 129.349 1336.65 127.25 1334.06 127.25C1331.47 127.25 1329.38 129.349 1329.38 131.938C1329.38 134.526 1331.47 136.625 1334.06 136.625Z" stroke="#3843D0" stroke-width="2" stroke-linecap="round" stroke-linejoin="round"/>
<path d="M1305.94 138.188C1308.53 138.188 1310.62 136.089 1310.62 133.5C1310.62 130.911 1308.53 128.812 1305.94 128.812C1303.35 128.812 1301.25 130.911 1301.25 133.5C1301.25 136.089 1303.35 138.188 1305.94 138.188Z" stroke="#3843D0" stroke-width="2" stroke-linecap="round" stroke-linejoin="round"/>
</g>
<g opacity="0.5" clip-path="url(#clip6_1_3325)">
<path opacity="0.2" d="M1415.62 422.812H1404.69V455.625H1415.62V422.812Z" fill="#3843D0"/>
<path d="M1384.38 455.625V441.562H1393.75" stroke="#3843D0" stroke-width="2" stroke-linecap="round" stroke-linejoin="round"/>
<path d="M1418.75 455.625H1381.25" stroke="#3843D0" stroke-width="2" stroke-linecap="round" stroke-linejoin="round"/>
<path d="M1393.75 455.625V432.188H1404.69" stroke="#3843D0" stroke-width="2" stroke-linecap="round" stroke-linejoin="round"/>
<path d="M1404.69 455.625V422.812H1415.62V455.625" stroke="#3843D0" stroke-width="2" stroke-linecap="round" stroke-linejoin="round"/>
</g>
<g opacity="0.25" clip-path="url(#clip7_1_3325)">
<path opacity="0.2" d="M600 538.75C610.355 538.75 618.75 530.355 618.75 520C618.75 509.645 610.355 501.25 600 501.25C589.645 501.25 581.25 509.645 581.25 520C581.25 530.355 589.645 538.75 600 538.75Z" fill="#3843D0"/>
<path d="M600 509.062V512.188" stroke="#3843D0" stroke-width="2" stroke-linecap="round" stroke-linejoin="round"/>
<path d="M600 527.812V530.938" stroke="#3843D0" stroke-width="2" stroke-linecap="round" stroke-linejoin="round"/>
<path d="M600 538.75C610.355 538.75 618.75 530.355 618.75 520C618.75 509.645 610.355 501.25 600 501.25C589.645 501.25 581.25 509.645 581.25 520C581.25 530.355 589.645 538.75 600 538.75Z" stroke="#3843D0" stroke-width="2" stroke-linecap="round" stroke-linejoin="round"/>
<path d="M595.312 527.812H602.344C603.38 527.812 604.373 527.401 605.106 526.668C605.838 525.936 606.25 524.942 606.25 523.906C606.25 522.87 605.838 521.877 605.106 521.144C604.373 520.412 603.38 520 602.344 520H597.656C596.62 520 595.627 519.588 594.894 518.856C594.162 518.123 593.75 517.13 593.75 516.094C593.75 515.058 594.162 514.064 594.894 513.332C595.627 512.599 596.62 512.188 597.656 512.188H604.688" stroke="#3843D0" stroke-width="2" stroke-linecap="round" stroke-linejoin="round"/>
</g>
<g opacity="0.25" clip-path="url(#clip8_1_3325)">
<path opacity="0.2" d="M46.25 19.125L43.125 34.75L55.625 39.4375L33.75 62.875L36.875 47.25L24.375 42.5625L46.25 19.125Z" fill="#3843D0"/>
<path d="M46.25 19.125L43.125 34.75L55.625 39.4375L33.75 62.875L36.875 47.25L24.375 42.5625L46.25 19.125Z" stroke="#3843D0" stroke-width="2" stroke-linecap="round" stroke-linejoin="round"/>
</g>
<g opacity="0.25" clip-path="url(#clip9_1_3325)">
<path opacity="0.2" d="M989.52 134.73C989.227 135.023 988.829 135.188 988.415 135.188C988.001 135.188 987.604 135.023 987.311 134.73L983.27 130.695C982.977 130.402 982.812 130.005 982.812 129.591C982.812 129.177 982.977 128.779 983.27 128.486L1003.13 108.625L1009.38 114.875L989.52 134.73Z" fill="#3843D0"/>
<path d="M1017.19 118V127.375" stroke="#3843D0" stroke-width="2" stroke-linecap="round" stroke-linejoin="round"/>
<path d="M1012.5 122.688H1021.88" stroke="#3843D0" stroke-width="2" stroke-linecap="round" stroke-linejoin="round"/>
<path d="M990.625 100.812V110.188" stroke="#3843D0" stroke-width="2" stroke-linecap="round" stroke-linejoin="round"/>
<path d="M985.938 105.5H995.312" stroke="#3843D0" stroke-width="2" stroke-linecap="round" stroke-linejoin="round"/>
<path d="M1007.81 128.938V135.188" stroke="#3843D0" stroke-width="2" stroke-linecap="round" stroke-linejoin="round"/>
<path d="M1004.69 132.062H1010.94" stroke="#3843D0" stroke-width="2" stroke-linecap="round" stroke-linejoin="round"/>
<path d="M1003.12 108.625L1009.38 114.875" stroke="#3843D0" stroke-width="2" stroke-linecap="round" stroke-linejoin="round"/>
<path d="M1010.48 101.27L983.27 128.48C982.659 129.09 982.659 130.079 983.27 130.689L987.309 134.729C987.919 135.339 988.909 135.339 989.519 134.729L1016.73 107.519C1017.34 106.909 1017.34 105.92 1016.73 105.309L1012.69 101.27C1012.08 100.66 1011.09 100.66 1010.48 101.27Z" stroke="#3843D0" stroke-width="2" stroke-linecap="round" stroke-linejoin="round"/>
</g>
<g opacity="0.25" clip-path="url(#clip10_1_3325)">
<path opacity="0.2" d="M760 603.125C763.452 603.125 766.25 600.327 766.25 596.875C766.25 593.423 763.452 590.625 760 590.625C756.548 590.625 753.75 593.423 753.75 596.875C753.75 600.327 756.548 603.125 760 603.125Z" fill="#3843D0"/>
<path d="M770.156 582.812H775.625C776.039 582.812 776.437 582.977 776.73 583.27C777.023 583.563 777.188 583.961 777.188 584.375V589.844" stroke="#3843D0" stroke-width="2" stroke-linecap="round" stroke-linejoin="round"/>
<path d="M770.156 617.188H775.625C776.039 617.188 776.437 617.023 776.73 616.73C777.023 616.437 777.188 616.039 777.188 615.625V610.156" stroke="#3843D0" stroke-width="2" stroke-linecap="round" stroke-linejoin="round"/>
<path d="M749.844 617.188H744.375C743.961 617.188 743.563 617.023 743.27 616.73C742.977 616.437 742.812 616.039 742.812 615.625V610.156" stroke="#3843D0" stroke-width="2" stroke-linecap="round" stroke-linejoin="round"/>
<path d="M749.844 582.812H744.375C743.961 582.812 743.563 582.977 743.27 583.27C742.977 583.563 742.812 583.961 742.812 584.375V589.844" stroke="#3843D0" stroke-width="2" stroke-linecap="round" stroke-linejoin="round"/>
<path d="M760 603.125C763.452 603.125 766.25 600.327 766.25 596.875C766.25 593.423 763.452 590.625 760 590.625C756.548 590.625 753.75 593.423 753.75 596.875C753.75 600.327 756.548 603.125 760 603.125Z" stroke="#3843D0" stroke-width="2" stroke-linecap="round" stroke-linejoin="round"/>
<path d="M750.625 607.812C751.717 606.357 753.132 605.176 754.759 604.362C756.386 603.549 758.181 603.125 760 603.125C761.819 603.125 763.614 603.549 765.241 604.362C766.868 605.176 768.283 606.357 769.375 607.812" stroke="#3843D0" stroke-width="2" stroke-linecap="round" stroke-linejoin="round"/>
</g>
<defs>
<clipPath id="clip0_1_3325">
<rect width="50" height="50" fill="white" transform="translate(335 96)"/>
</clipPath>
<clipPath id="clip1_1_3325">
<rect width="50" height="50" fill="white" transform="translate(975 495)"/>
</clipPath>
<clipPath id="clip2_1_3325">
<rect width="60" height="61" fill="white" transform="translate(90 170)"/>
</clipPath>
<clipPath id="clip3_1_3325">
<rect width="50" height="50" fill="white" transform="translate(815 16)"/>
</clipPath>
<clipPath id="clip4_1_3325">
<rect width="50" height="50" fill="white" transform="translate(255 575)"/>
</clipPath>
<clipPath id="clip5_1_3325">
<rect width="50" height="50" fill="white" transform="translate(1295 96)"/>
</clipPath>
<clipPath id="clip6_1_3325">
<rect width="50" height="50" fill="white" transform="translate(1375 415)"/>
</clipPath>
<clipPath id="clip7_1_3325">
<rect width="50" height="50" fill="white" transform="translate(575 495)"/>
</clipPath>
<clipPath id="clip8_1_3325">
<rect width="50" height="50" fill="white" transform="translate(15 16)"/>
</clipPath>
<clipPath id="clip9_1_3325">
<rect width="50" height="50" fill="white" transform="translate(975 93)"/>
</clipPath>
<clipPath id="clip10_1_3325">
<rect width="50" height="50" fill="white" transform="translate(735 575)"/>
</clipPath>
</defs>
</svg>
